<svg width="24" height="32" viewBox="0 0 24 32" fill="none" xmlns="http://www.w3.org/2000/svg">
<path d="M11.9995 0C5.50402 0 0.218994 5.28503 0.218994 11.7811C0.218994 13.4755 0.565805 15.0933 1.24928 16.59C4.19472 23.0353 9.84195 29.8402 11.503 31.7721C11.6274 31.9165 11.8089 31.9997 11.9998 31.9997C12.1907 31.9997 12.3721 31.9165 12.4966 31.7721C14.157 29.8405 19.8042 23.036 22.7506 16.59C23.4344 15.0933 23.7809 13.4755 23.7809 11.7811C23.7802 5.28503 18.4952 0 11.9995 0ZM11.9995 17.9003C8.62533 17.9003 5.87998 15.1549 5.87998 11.7808C5.87998 8.40633 8.62533 5.66099 11.9995 5.66099C15.3736 5.66099 18.1189 8.40633 18.1189 11.7808C18.1193 15.1549 15.3739 17.9003 11.9995 17.9003Z" fill="#0884C4"/>
</svg>
